<svg xmlns="http://www.w3.org/2000/svg" viewBox="0 0 600 1100">
  <defs><linearGradient id="leaf" x1="1" y1="0" x2="0" y2="1"><stop stop-color="#a1a993"/><stop offset="1" stop-color="#4e624e"/></linearGradient><radialGradient id="petal"><stop stop-color="#fffef8"/><stop offset=".65" stop-color="#eee7da"/><stop offset="1" stop-color="#cfc3b0"/></radialGradient></defs>
  <g fill="none" stroke="#6d7b65" stroke-width="7" stroke-linecap="round"><path d="M523 1068C449 849 478 642 286 368 205 252 158 139 150 23"/><path d="M473 862c-146-68-242-175-307-309"/><path d="M432 686c81-118 91-247 67-363"/></g>
  <g fill="url(#leaf)"><ellipse cx="478" cy="870" rx="29" ry="72" transform="rotate(54 478 870)"/><ellipse cx="405" cy="795" rx="27" ry="68" transform="rotate(-49 405 795)"/><ellipse cx="333" cy="690" rx="30" ry="76" transform="rotate(48 333 690)"/><ellipse cx="247" cy="580" rx="28" ry="70" transform="rotate(-48 247 580)"/><ellipse cx="251" cy="420" rx="31" ry="79" transform="rotate(42 251 420)"/><ellipse cx="169" cy="274" rx="26" ry="67" transform="rotate(-40 169 274)"/><ellipse cx="449" cy="624" rx="27" ry="69" transform="rotate(-36 449 624)"/><ellipse cx="493" cy="447" rx="26" ry="66" transform="rotate(31 493 447)"/></g>
  <g fill="url(#petal)" stroke="#d9d0c0" stroke-width="2"><g transform="translate(331 660)"><ellipse rx="30" ry="61" transform="translate(0 -40)"/><ellipse rx="30" ry="61" transform="rotate(72) translate(0 -40)"/><ellipse rx="30" ry="61" transform="rotate(144) translate(0 -40)"/><ellipse rx="30" ry="61" transform="rotate(216) translate(0 -40)"/><ellipse rx="30" ry="61" transform="rotate(288) translate(0 -40)"/><circle r="24" fill="#c8b58e"/></g><g transform="translate(474 356) scale(.7)"><ellipse rx="30" ry="61" transform="translate(0 -40)"/><ellipse rx="30" ry="61" transform="rotate(72) translate(0 -40)"/><ellipse rx="30" ry="61" transform="rotate(144) translate(0 -40)"/><ellipse rx="30" ry="61" transform="rotate(216) translate(0 -40)"/><ellipse rx="30" ry="61" transform="rotate(288) translate(0 -40)"/><circle r="24" fill="#c8b58e"/></g></g>
  <g fill="#ece4d7"><circle cx="218" cy="508" r="19"/><circle cx="179" cy="462" r="15"/><circle cx="398" cy="756" r="14"/><circle cx="509" cy="802" r="16"/></g>
</svg>
