<svg xmlns="http://www.w3.org/2000/svg" viewBox="0 0 600 1100">
  <defs><linearGradient id="leaf" x1="0" y1="0" x2="1" y2="1"><stop stop-color="#9aa28a"/><stop offset="1" stop-color="#4f624f"/></linearGradient><radialGradient id="petal"><stop stop-color="#fffef8"/><stop offset=".65" stop-color="#eee8dc"/><stop offset="1" stop-color="#cfc4b2"/></radialGradient></defs>
  <g fill="none" stroke="#6f7d67" stroke-width="7" stroke-linecap="round"><path d="M73 1050C157 833 121 603 311 351 394 241 443 136 459 30"/><path d="M121 858c149-74 249-187 315-316"/><path d="M165 693C90 573 87 445 115 332"/></g>
  <g fill="url(#leaf)"><ellipse cx="115" cy="864" rx="29" ry="72" transform="rotate(-53 115 864)"/><ellipse cx="192" cy="790" rx="27" ry="68" transform="rotate(49 192 790)"/><ellipse cx="263" cy="684" rx="30" ry="76" transform="rotate(-48 263 684)"/><ellipse cx="348" cy="574" rx="28" ry="70" transform="rotate(48 348 574)"/><ellipse cx="344" cy="414" rx="31" ry="79" transform="rotate(-42 344 414)"/><ellipse cx="424" cy="270" rx="26" ry="67" transform="rotate(40 424 270)"/><ellipse cx="147" cy="619" rx="27" ry="69" transform="rotate(36 147 619)"/><ellipse cx="103" cy="445" rx="26" ry="66" transform="rotate(-31 103 445)"/></g>
  <g fill="url(#petal)" stroke="#d9d0c0" stroke-width="2"><g transform="translate(265 655)"><ellipse rx="30" ry="61" transform="rotate(0) translate(0 -40)"/><ellipse rx="30" ry="61" transform="rotate(72) translate(0 -40)"/><ellipse rx="30" ry="61" transform="rotate(144) translate(0 -40)"/><ellipse rx="30" ry="61" transform="rotate(216) translate(0 -40)"/><ellipse rx="30" ry="61" transform="rotate(288) translate(0 -40)"/><circle r="24" fill="#c8b58e"/></g><g transform="translate(125 350) scale(.7)"><ellipse rx="30" ry="61" transform="translate(0 -40)"/><ellipse rx="30" ry="61" transform="rotate(72) translate(0 -40)"/><ellipse rx="30" ry="61" transform="rotate(144) translate(0 -40)"/><ellipse rx="30" ry="61" transform="rotate(216) translate(0 -40)"/><ellipse rx="30" ry="61" transform="rotate(288) translate(0 -40)"/><circle r="24" fill="#c8b58e"/></g></g>
  <g fill="#ece4d7"><circle cx="378" cy="502" r="19"/><circle cx="416" cy="456" r="15"/><circle cx="199" cy="751" r="14"/><circle cx="87" cy="795" r="16"/></g>
</svg>
